<svg viewBox="0 0 24 24" fill="none" stroke="currentColor" stroke-linecap="round" stroke-linejoin="round" xmlns="http://www.w3.org/2000/svg">
  <path d="M9.2 4.2h5.6c.8 0 1.1.3 1.1 1.1v1.5c0 .8-.3 1.1-1.1 1.1H9.2c-.8 0-1.1-.3-1.1-1.1V5.3c0-.8.3-1.1 1.1-1.1Z"/>
  <path d="M9 8h6l1.2 11c.1 1-.4 1.6-1.4 1.6H9.2c-1 0-1.5-.6-1.4-1.6L9 8Z"/>
  <path d="M10 14.4a2 2 0 1 0 4 0 2 2 0 0 0-4 0Z"/>
  <path d="M12 11.2v.8"/>
  <path d="M12 16.8v.8"/>
  <path d="M9.2 14.4h.8"/>
  <path d="M14 14.4h.8"/>
</svg>
