<svg xmlns="http://www.w3.org/2000/svg" viewBox="0 0 24 24" fill="none" stroke="currentColor" stroke-linecap="round" stroke-linejoin="round">
  <path d="M5.5 14.5a4 4 0 1 0 8 0 4 4 0 0 0-8 0z" />
  <path d="M10.5 10.5a4 4 0 1 0 8 0 4 4 0 0 0-8 0z" />
  <path d="M12 17.2a3.7 3.7 0 1 0 7.4 0 3.7 3.7 0 0 0-7.4 0z" />
  <path d="M8.1 12.6l.8 1 .9-1 .2 1.2 1.1.3-1.1.5-.1 1.2-.9-.8-1.1.6.4-1.2-.9-.8z" />
  <path d="M13 8.6l.8 1 .9-1 .2 1.2 1.1.3-1.1.5-.1 1.2-.9-.8-1.1.6.4-1.2-.9-.8z" />
  <path d="M14.5 15.6l.8 1 .9-1 .2 1.2 1.1.3-1.1.5-.1 1.2-.9-.8-1.1.6.4-1.2-.9-.8z" />
  <path d="M11.5 9.5c-.8-1.3-1.8-2.2-3-2.7" />
  <path d="M14.2 7c.4-1 .9-1.8 1.7-2.5" />
</svg>
