<svg xmlns="http://www.w3.org/2000/svg" viewBox="0 0 24 24" fill="none" stroke="currentColor" stroke-linecap="round" stroke-linejoin="round">
  <path d="M5 8.5c0-2 3.1-3.6 7-3.6s7 1.6 7 3.6-3.1 3.6-7 3.6-7-1.6-7-3.6z" />
  <path d="M4.5 11.5c0-1 .8-1.9 2.2-2.6" />
  <path d="M19.5 11.5c0 2.1-3.4 3.8-7.5 3.8s-7.5-1.7-7.5-3.8" />
  <path d="M5.7 14.2c1.2 1.5 3.6 2.5 6.3 2.5s5.1-1 6.3-2.5" />
  <path d="M7.4 6.8l-.7-.7" />
  <path d="M11 5.4l-.2-.9" />
  <path d="M15.1 5.7l.5-.8" />
  <path d="M18 7.2l.8-.5" />
  <path d="M6.6 10.7l-.9.3" />
  <path d="M17.6 10.6l.9.3" />
</svg>
