<svg xmlns="http://www.w3.org/2000/svg" viewBox="0 0 24 24" fill="none" stroke="currentColor" stroke-linecap="round" stroke-linejoin="round">
  <path d="M6.5 5.5l8.5 13" />
  <path d="M9.5 4.5l8.5 13" />
  <path d="M4.9 3.9c.8-.5 1.9-.2 2.4.6s.3 1.9-.5 2.4-1.9.2-2.4-.6-.3-1.9.5-2.4z" />
  <path d="M14.2 17.1c.8-.5 1.9-.2 2.4.6s.3 1.9-.5 2.4-1.9.2-2.4-.6-.3-1.9.5-2.4z" />
  <path d="M7.9 2.9c.8-.5 1.9-.2 2.4.6s.3 1.9-.5 2.4-1.9.2-2.4-.6-.3-1.9.5-2.4z" />
  <path d="M17.2 16.1c.8-.5 1.9-.2 2.4.6s.3 1.9-.5 2.4-1.9.2-2.4-.6-.3-1.9.5-2.4z" />
</svg>
