<svg xmlns="http://www.w3.org/2000/svg" viewBox="0 0 24 24" fill="none" stroke="currentColor" stroke-linecap="round" stroke-linejoin="round">
  <path d="M6.5 6.5l11 11" />
  <path d="M17.5 6.5l-11 11" />
  <path d="M4.8 4.8c.7-.7 1.8-.7 2.5 0s.7 1.8 0 2.5-1.8.7-2.5 0-.7-1.8 0-2.5z" />
  <path d="M16.7 16.7c.7-.7 1.8-.7 2.5 0s.7 1.8 0 2.5-1.8.7-2.5 0-.7-1.8 0-2.5z" />
  <path d="M16.7 4.8c.7-.7 1.8-.7 2.5 0s.7 1.8 0 2.5-1.8.7-2.5 0-.7-1.8 0-2.5z" />
  <path d="M4.8 16.7c.7-.7 1.8-.7 2.5 0s.7 1.8 0 2.5-1.8.7-2.5 0-.7-1.8 0-2.5z" />
</svg>
