<svg xmlns="http://www.w3.org/2000/svg" viewBox="0 0 24 24" fill="none" stroke="currentColor" stroke-linecap="round" stroke-linejoin="round">
  <path d="M12 5.2c-1.2 1.2-2.3 1.8-4 2.2-2.1.5-3.5 2.8-3.5 5.6 0 4 3 7 7.5 7s7.5-3 7.5-7c0-2.8-1.4-5.1-3.5-5.6-1.7-.4-2.8-1-4-2.2z" />
  <path d="M12 5.2c.4-1.1.4-2 .1-3" />
  <path d="M10.2 4.1c.5.7 1 1.1 1.8 1.1s1.4-.4 1.9-1.1" />
  <path d="M9 8.7c-1.4 2.1-1.9 5.9-.7 9" />
  <path d="M12 8.2v11.6" />
  <path d="M15 8.7c1.4 2.1 1.9 5.9.7 9" />
  <path d="M9.4 20.2l-1.2 1.3" />
  <path d="M12 20.5v1.7" />
  <path d="M14.6 20.2l1.2 1.3" />
</svg>
