<svg viewBox="0 0 24 24" fill="none" stroke="currentColor" stroke-linecap="round" stroke-linejoin="round" xmlns="http://www.w3.org/2000/svg">
  <path d="M12 20c-.4-4.7-.1-9.1.9-13.2"/>
  <path d="M9.5 20c.1-4.3-.6-8.2-2.2-11.8"/>
  <path d="M14.5 20c.6-3.9 1.8-7.4 3.8-10.6"/>
  <path d="M9 8.4c-1.7-.8-3.1-.8-4.4.1 1.1 1.4 2.5 1.8 4.2 1.1"/>
  <path d="M10.4 11.7c-1.7-.7-3.2-.5-4.3.5 1.2 1.2 2.7 1.5 4.3.4"/>
  <path d="M12.6 7.1c-1.1-1.5-1.3-2.9-.6-4.2 1.6.9 2.2 2.2 1.6 4"/>
  <path d="M14.2 10.2c1.5-1 2.9-1.3 4.3-.6-.8 1.5-2 2.2-3.8 1.7"/>
  <path d="M16 13.2c1.7-.7 3.1-.5 4.3.5-1.2 1.2-2.6 1.5-4.2.5"/>
  <path d="M8.2 17.6h7.7"/>
  <path d="M8.8 19.4h6.6"/>
  <path d="M10.6 17.6l2.6 1.8"/>
  <path d="M13.5 17.6l-2.6 1.8"/>
</svg>
