<svg xmlns="http://www.w3.org/2000/svg" viewBox="0 0 24 24" fill="none" stroke="currentColor" stroke-linecap="round" stroke-linejoin="round">
  <path d="M7.5 8.5c-1.8 0-3 1.6-3 3.8 0 3.1 1.7 6.2 3.2 6.2.9 0 1-1.5 1.8-1.5s.9 1.5 1.8 1.5c1.5 0 3.2-3.1 3.2-6.2 0-2.2-1.2-3.8-3-3.8-.8 0-1.3.4-2 .4s-1.2-.4-2-.4z" />
  <path d="M13.5 5.5l6 6" />
  <path d="M18.5 10.5l1.5-1.5" />
  <path d="M16.6 8.6l1.5-1.5" />
  <path d="M14.7 6.7l1.5-1.5" />
  <path d="M12.7 4.7l1.6-1.6" />
  <path d="M15.5 7.5l-4 4" />
</svg>
