<svg xmlns="http://www.w3.org/2000/svg" viewBox="0 0 24 24" fill="none" stroke="currentColor" stroke-linecap="round" stroke-linejoin="round">
  <path d="M4.5 12c0-4.1 3.4-7.5 7.5-7.5s7.5 3.4 7.5 7.5-3.4 7.5-7.5 7.5S4.5 16.1 4.5 12z" />
  <path d="M9.2 12a2.8 2.8 0 1 0 5.6 0 2.8 2.8 0 0 0-5.6 0z" />
  <path d="M12 6.7v2.5" />
  <path d="M12 14.8v2.5" />
  <path d="M6.7 12h2.5" />
  <path d="M14.8 12h2.5" />
  <path d="M8.3 8.3l1.8 1.8" />
  <path d="M13.9 13.9l1.8 1.8" />
  <path d="M15.7 8.3l-1.8 1.8" />
  <path d="M10.1 13.9l-1.8 1.8" />
</svg>
