<svg viewBox="0 0 24 24" fill="none" stroke="currentColor" stroke-linecap="round" stroke-linejoin="round" xmlns="http://www.w3.org/2000/svg">
  <path d="M4.3 8.2c1.2-1.4 4.1-2 5.8-.8 1.5 1.1 1.2 3.7-.5 4.7-1.9 1.1-4.8.5-5.8-.9-.7-1-.4-2.1.5-3Z"/>
  <path d="M6.1 8.2c.8.8 1.5 1.8 2.1 3"/>
  <path d="M8.8 7.8c-.5 1.3-1.2 2.4-2.2 3.4"/>
  <path d="M13 5.4c1.6-.8 4.4-.3 5.5 1.2.9 1.3-.2 3.5-2 3.8-2.1.3-4.4-1-4.9-2.5-.3-1 .2-1.9 1.4-2.5Z"/>
  <path d="M13.8 6.6c.5 1 1 2 1.4 3.2"/>
  <path d="M16.6 6.2c-.8.9-1.7 1.7-2.8 2.3"/>
  <path d="M9.2 14.2c1.7-1 4.6-.8 5.8.7 1.1 1.3.3 3.8-1.5 4.4-2.1.7-4.8-.3-5.5-1.8-.5-1.1 0-2.4 1.2-3.3Z"/>
  <path d="M10.2 15.2c.7 1 1.3 2.1 1.9 3.3"/>
  <path d="M13.3 15c-.8 1.1-1.7 2.1-2.9 2.9"/>
</svg>
