<svg viewBox="0 0 24 24" fill="none" stroke="currentColor" stroke-linecap="round" stroke-linejoin="round" xmlns="http://www.w3.org/2000/svg">
  <path d="M8 3.5h8"/>
  <path d="M7.4 5h9.2"/>
  <path d="M8.2 5c-.2 1.3-.7 2.2-1.5 3-.7.8-1.2 1.9-1.2 3.2v6.9c0 1.4 1.1 2.4 2.5 2.4h8c1.4 0 2.5-1 2.5-2.4v-6.9c0-1.3-.5-2.4-1.2-3.2-.8-.8-1.3-1.7-1.5-3"/>
  <path d="M7.3 11h9.4"/>
  <path d="M7.3 16.4h9.4"/>
  <path d="M9.2 12.6c1-.8 2-.9 3-.2 1 .7 2 .5 2.8-.4"/>
  <path d="M9.2 14.4c1-.8 2-.9 3-.2 1 .7 2 .5 2.8-.4"/>
  <path d="M9.3 18.3h5.4"/>
</svg>
