<svg viewBox="0 0 24 24" fill="none" stroke="currentColor" stroke-linecap="round" stroke-linejoin="round" xmlns="http://www.w3.org/2000/svg">
  <path d="M12 6.7c-3.3 1.6-5.8 4.5-5.8 7.8 0 3 2.3 5.2 5.8 5.2s5.8-2.2 5.8-5.2c0-3.3-2.5-6.2-5.8-7.8Z"/>
  <path d="M12 6.7c-1.2 2.5-1.5 8.3 0 12.9"/>
  <path d="M9.4 9.2c-1 2.4-1 5.7.5 8.5"/>
  <path d="M14.6 9.2c1 2.4 1 5.7-.5 8.5"/>
  <path d="M12 6.7c-.4-1.4-.1-2.7 1-3.8"/>
  <path d="M10.2 20.3 9 21.5"/>
  <path d="M12 20.5v1.5"/>
  <path d="M13.8 20.3 15 21.5"/>
</svg>
