<svg xmlns="http://www.w3.org/2000/svg" viewBox="0 0 24 24" fill="none" stroke="currentColor" stroke-linecap="round" stroke-linejoin="round">
  <path d="M4.5 13.5l9-5.2c.9-.5 2-.2 2.5.7l2.4 4.1c.5.9.2 2-.7 2.5l-9 5.2c-.9.5-2 .2-2.5-.7l-2.4-4.1c-.5-.9-.2-2 .7-2.5z" />
  <path d="M5.6 12.9l3.6 6.3" />
  <path d="M15.2 7.9l3.6 6.3" />
  <path d="M18.1 6.4l2.6 4.5" />
  <path d="M16.5 5.5l1.6.9" />
  <path d="M20.7 10.9l1.8.1" />
  <path d="M5.9 15.8l7.4-4.3" />
  <path d="M19.5 5.1c.9-.9 1.8-1.1 2.6-.5" />
</svg>
